<svg xmlns="http://www.w3.org/2000/svg" height="16" width="16" version="1.1" viewBox="0 0 4.2333333 4.2333332"><g fill="white" transform="translate(0 -5.6989)"><g transform="matrix(.19706 0 0 .19706 -23.686 -5.8264)"><path d="m124.06 64.26v1.695h-0.23255q-0.32556 0-0.49092 0.13953-0.1602 0.13436-0.22738 0.41858-0.0362 0.15503-0.0413 0.85266-0.005 0.69246-0.14469 1.0904-0.10336 0.30489-0.29456 0.49093-0.14469 0.13953-0.47542 0.28422 0.34623 0.1602 0.51159 0.3359 0.17054 0.17053 0.28939 0.5271 0.11886 0.3514 0.11886 1.1265 0 0.69763 0.0724 0.9095 0.0723 0.21187 0.23771 0.29972 0.17053 0.08785 0.67696 0.08785v1.6743h-0.65113q-1.0077 0-1.4314-0.22221-0.42375-0.21704-0.60462-0.64079-0.18086-0.41858-0.18086-1.2609 0-0.18604 0.0103-0.37207 0.005-0.11369 0.005-0.23254 0-0.59945-0.10852-0.85266t-0.31523-0.3669q-0.20154-0.11369-0.58911-0.12402v-1.7725q0.39791 0 0.59428-0.12402 0.20154-0.12402 0.30489-0.37724 0.10335-0.25838 0.10335-0.86816v-0.1757q-0.005-0.11886-0.005-0.23771 0-0.91467 0.14986-1.3229 0.15503-0.40824 0.42374-0.62528 0.20154-0.16536 0.54777-0.24805 0.45992-0.10852 1.049-0.10852z"/><path d="m128.51 64.26v1.695h-0.23254q-0.32556 0-0.49093 0.13953-0.1602 0.13436-0.22737 0.41858-0.0362 0.15503-0.0414 0.85266-0.005 0.69246-0.14469 1.0904-0.10335 0.30489-0.29456 0.49093-0.14469 0.13953-0.47542 0.28422 0.34623 0.1602 0.5116 0.3359 0.17053 0.17053 0.28939 0.5271 0.11885 0.3514 0.11885 1.1265 0 0.69763 0.0724 0.9095t0.23771 0.29972q0.17053 0.08785 0.67696 0.08785v1.6743h-0.65q-1.0077 0-1.4314-0.22221-0.42375-0.21704-0.60461-0.64079-0.18087-0.41858-0.18087-1.2609 0-0.18604 0.0103-0.37207 0.005-0.11369 0.005-0.23254 0-0.59945-0.10852-0.85266t-0.31522-0.3669q-0.20154-0.11369-0.58912-0.12402v-1.7725q0.39791 0 0.59428-0.12402 0.20154-0.12402 0.30489-0.37724 0.10336-0.25838 0.10336-0.86816v-0.1757q-0.005-0.11886-0.005-0.23771 0-0.91467 0.14986-1.3229 0.15503-0.40824 0.42375-0.62528 0.20154-0.16536 0.54777-0.24805 0.45992-0.10852 1.049-0.10852z"/><path d="m132.65 69.297q0 0.70797-0.50126 1.2144-0.50126 0.50126-1.2144 0.50126-0.71313 0-1.2144-0.50126-0.50126-0.50643-0.50126-1.2144 0-0.71314 0.50126-1.2144t1.2144-0.50126 1.2144 0.50126 0.50126 1.2144z"/><path d="m133.36 64.26v1.695h0.23255q0.32556 0 0.48575 0.13953 0.16537 0.13436 0.23255 0.41858 0.0362 0.15503 0.0413 0.85266 0.005 0.69246 0.14469 1.0904 0.10336 0.30489 0.29456 0.49093 0.14469 0.13953 0.47542 0.28422-0.34623 0.1602-0.51676 0.3359-0.16537 0.17053-0.28422 0.5271-0.11886 0.3514-0.11886 1.1265 0 0.69763-0.0723 0.9095-0.0724 0.21187-0.24288 0.29972-0.16537 0.08785-0.6718 0.08785v1.6743h0.65113q1.0077 0 1.4314-0.22221 0.42375-0.21704 0.60462-0.64079 0.18086-0.41858 0.18086-1.2609 0-0.18604-0.0103-0.37207-0.005-0.11369-0.005-0.23254 0-0.59945 0.10852-0.85266t0.31006-0.3669q0.20671-0.11369 0.59428-0.12402v-1.7725q-0.39791 0-0.59945-0.12402-0.19637-0.12402-0.29972-0.37724-0.10335-0.25838-0.10335-0.86816v-0.1757q0.005-0.11886 0.005-0.23771 0-0.91467-0.15502-1.3229-0.14987-0.40824-0.41858-0.62528-0.20154-0.16536-0.54777-0.24805-0.45992-0.10852-1.049-0.10852z"/><path d="m137.81 64.26v1.695h0.23254q0.32556 0 0.48576 0.13953 0.16536 0.13436 0.23254 0.41858 0.0362 0.15503 0.0413 0.85266 0.005 0.69246 0.1447 1.0904 0.10335 0.30489 0.29455 0.49093 0.1447 0.13953 0.47543 0.28422-0.34624 0.1602-0.51677 0.3359-0.16536 0.17053-0.28422 0.5271-0.11885 0.3514-0.11885 1.1265 0 0.69763-0.0724 0.9095t-0.24288 0.29972q-0.16536 0.08785-0.67179 0.08785v1.6743h0.65112q1.0077 0 1.4314-0.22221 0.42374-0.21704 0.60461-0.64079 0.18087-0.41858 0.18087-1.2609 0-0.18604-0.0103-0.37207-0.005-0.11369-0.005-0.23254 0-0.59945 0.10853-0.85266 0.10852-0.25321 0.31005-0.3669 0.20671-0.11369 0.59428-0.12402v-1.7725q-0.39791 0-0.59944-0.12402-0.19637-0.12402-0.29973-0.37724-0.10335-0.25838-0.10335-0.86816v-0.1757q0.005-0.11886 0.005-0.23771 0-0.91467-0.15503-1.3229-0.14986-0.40824-0.41858-0.62528-0.20154-0.16536-0.54777-0.24805-0.45992-0.10852-1.049-0.10852z"/></g></g></svg>
